<mxfile host="drawio-plugin" agent="Mozilla/5.0 (Windows NT 10.0; Win64; x64) AppleWebKit/537.36 (KHTML, like Gecko) Chrome/111.0.0.0 Safari/537.36" modified="2024-12-16T21:23:58.930Z" etag="v2s93aG81ESoM0-AvMLS" version="22.1.22" type="embed">
  <diagram name="Page-1" id="oB8MHlwppOr-tE6rPpJF">
    <mxGraphModel dx="772" dy="675" grid="1" gridSize="10" guides="1" tooltips="1" connect="1" arrows="1" fold="1" page="1" pageScale="1" pageWidth="1169" pageHeight="1654" math="0" shadow="0">
      <root>
        <mxCell id="0" />
        <mxCell id="1" parent="0" />
        <mxCell id="12" value="" style="swimlane;startSize=0;fillColor=#d5e8d4;strokeColor=#82b366;" parent="1" vertex="1">
          <mxGeometry x="340" y="320" width="450" height="430" as="geometry" />
        </mxCell>
        <mxCell id="2" value="Central Warehouse" style="shape=hexagon;perimeter=hexagonPerimeter2;whiteSpace=wrap;html=1;fixedSize=1;fillColor=#d5e8d4;strokeColor=#82b366;" parent="12" vertex="1">
          <mxGeometry x="166" y="180" width="120" height="80" as="geometry" />
        </mxCell>
        <mxCell id="3" value="" style="rounded=0;orthogonalLoop=1;jettySize=auto;html=1;dashed=1;endArrow=open;endFill=0;fillColor=#d5e8d4;strokeColor=#82b366;entryX=0;entryY=0.5;entryDx=0;entryDy=0;" parent="12" edge="1">
          <mxGeometry relative="1" as="geometry">
            <mxPoint x="58" y="219.86" as="sourcePoint" />
            <mxPoint x="157" y="219.86" as="targetPoint" />
          </mxGeometry>
        </mxCell>
        <mxCell id="4" value="central-warehouse.request" style="edgeLabel;html=1;align=center;verticalAlign=middle;resizable=0;points=[];" parent="3" connectable="0" vertex="1">
          <mxGeometry x="0.066" y="1" relative="1" as="geometry">
            <mxPoint x="-23" y="-9" as="offset" />
          </mxGeometry>
        </mxCell>
        <mxCell id="5" value="" style="endArrow=open;html=1;rounded=0;exitX=1;exitY=0.75;exitDx=0;exitDy=0;dashed=1;endFill=0;fillColor=#d5e8d4;strokeColor=#82b366;" parent="12" edge="1">
          <mxGeometry width="50" height="50" relative="1" as="geometry">
            <mxPoint x="285.99857142857155" y="237.1428571428571" as="sourcePoint" />
            <mxPoint x="375.57" y="237" as="targetPoint" />
          </mxGeometry>
        </mxCell>
        <mxCell id="6" value="logs.new" style="edgeLabel;html=1;align=center;verticalAlign=middle;resizable=0;points=[];" parent="5" connectable="0" vertex="1">
          <mxGeometry x="0.4562" relative="1" as="geometry">
            <mxPoint x="-41" y="13" as="offset" />
          </mxGeometry>
        </mxCell>
        <mxCell id="7" value="" style="rounded=0;orthogonalLoop=1;jettySize=auto;html=1;dashed=1;endArrow=open;endFill=0;fillColor=#d5e8d4;strokeColor=#82b366;exitX=1;exitY=0.25;exitDx=0;exitDy=0;" parent="12" edge="1">
          <mxGeometry relative="1" as="geometry">
            <mxPoint x="285.99857142857155" y="202.85714285714278" as="sourcePoint" />
            <mxPoint x="375.57" y="203" as="targetPoint" />
          </mxGeometry>
        </mxCell>
        <mxCell id="8" value="central-warehouse.complete" style="edgeLabel;html=1;align=center;verticalAlign=middle;resizable=0;points=[];" parent="7" connectable="0" vertex="1">
          <mxGeometry x="0.066" y="1" relative="1" as="geometry">
            <mxPoint x="22" y="-22" as="offset" />
          </mxGeometry>
        </mxCell>
        <mxCell id="9" value="MySQL" style="shape=cylinder3;whiteSpace=wrap;html=1;boundedLbl=1;backgroundOutline=1;size=15;fillColor=#d5e8d4;strokeColor=#82b366;" parent="12" vertex="1">
          <mxGeometry x="185.5" y="320" width="81" height="80" as="geometry" />
        </mxCell>
        <mxCell id="10" value="" style="endArrow=open;html=1;rounded=0;fillColor=#d5e8d4;strokeColor=#82b366;startArrow=none;startFill=0;endFill=0;" parent="12" edge="1">
          <mxGeometry width="50" height="50" relative="1" as="geometry">
            <mxPoint x="217" y="270" as="sourcePoint" />
            <mxPoint x="217" y="310" as="targetPoint" />
          </mxGeometry>
        </mxCell>
        <mxCell id="13" value="stores&lt;br&gt;CentralWarehouseOrder,&lt;br&gt;OrderArticle" style="edgeLabel;html=1;align=center;verticalAlign=middle;resizable=0;points=[];" parent="10" vertex="1" connectable="0">
          <mxGeometry x="-0.0534" y="-1" relative="1" as="geometry">
            <mxPoint x="-69" as="offset" />
          </mxGeometry>
        </mxCell>
        <mxCell id="11" value="" style="endArrow=none;html=1;rounded=0;fillColor=#d5e8d4;strokeColor=#82b366;startArrow=open;startFill=0;endFill=0;" parent="12" edge="1">
          <mxGeometry width="50" height="50" relative="1" as="geometry">
            <mxPoint x="237" y="270" as="sourcePoint" />
            <mxPoint x="237" y="310" as="targetPoint" />
          </mxGeometry>
        </mxCell>
        <mxCell id="16" value="retrieves&lt;br&gt;CentralWarehouseOrder,&lt;br&gt;OrderArticle" style="edgeLabel;html=1;align=center;verticalAlign=middle;resizable=0;points=[];" parent="11" vertex="1" connectable="0">
          <mxGeometry x="0.0845" y="-2" relative="1" as="geometry">
            <mxPoint x="72" as="offset" />
          </mxGeometry>
        </mxCell>
        <mxCell id="26" value="ch.hslu.swda.stock API" style="shape=cube;whiteSpace=wrap;html=1;boundedLbl=1;backgroundOutline=1;darkOpacity=0.05;darkOpacity2=0.1;fillColor=#d5e8d4;strokeColor=#82b366;" parent="12" vertex="1">
          <mxGeometry x="157" y="40" width="120" height="80" as="geometry" />
        </mxCell>
        <mxCell id="28" value="" style="endArrow=open;html=1;rounded=0;fillColor=#d5e8d4;strokeColor=#82b366;endFill=0;" parent="12" edge="1">
          <mxGeometry width="50" height="50" relative="1" as="geometry">
            <mxPoint x="226" y="170" as="sourcePoint" />
            <mxPoint x="226" y="130" as="targetPoint" />
          </mxGeometry>
        </mxCell>
        <mxCell id="29" value="uses" style="edgeLabel;html=1;align=center;verticalAlign=middle;resizable=0;points=[];" parent="28" vertex="1" connectable="0">
          <mxGeometry x="-0.2501" relative="1" as="geometry">
            <mxPoint x="19" y="-8" as="offset" />
          </mxGeometry>
        </mxCell>
        <mxCell id="31" value="Central Warehouse Service" style="text;html=1;align=center;verticalAlign=middle;resizable=0;points=[];autosize=1;strokeColor=none;fillColor=none;" parent="12" vertex="1">
          <mxGeometry x="10" width="170" height="30" as="geometry" />
        </mxCell>
        <mxCell id="20" value="Database" style="shape=cylinder3;whiteSpace=wrap;html=1;boundedLbl=1;backgroundOutline=1;size=15;fillColor=#d5e8d4;strokeColor=#82b366;" parent="1" vertex="1">
          <mxGeometry x="450.5" y="820" width="81" height="80" as="geometry" />
        </mxCell>
        <mxCell id="21" value="Java Application" style="shape=hexagon;perimeter=hexagonPerimeter2;whiteSpace=wrap;html=1;fixedSize=1;fillColor=#d5e8d4;strokeColor=#82b366;" parent="1" vertex="1">
          <mxGeometry x="540" y="820" width="120" height="80" as="geometry" />
        </mxCell>
        <mxCell id="24" value="Legend" style="text;html=1;align=center;verticalAlign=middle;resizable=0;points=[];autosize=1;strokeColor=none;fillColor=none;fontSize=16;" parent="1" vertex="1">
          <mxGeometry x="330" y="779" width="80" height="30" as="geometry" />
        </mxCell>
        <mxCell id="27" value="Special Java&amp;nbsp; APIs / libraries" style="shape=cube;whiteSpace=wrap;html=1;boundedLbl=1;backgroundOutline=1;darkOpacity=0.05;darkOpacity2=0.1;fillColor=#d5e8d4;strokeColor=#82b366;" parent="1" vertex="1">
          <mxGeometry x="670" y="820" width="120" height="80" as="geometry" />
        </mxCell>
        <mxCell id="32" value="" style="rounded=0;orthogonalLoop=1;jettySize=auto;html=1;dashed=1;endArrow=open;endFill=0;fillColor=#d5e8d4;strokeColor=#82b366;exitX=1;exitY=0.25;exitDx=0;exitDy=0;" edge="1" parent="1">
          <mxGeometry relative="1" as="geometry">
            <mxPoint x="340" y="840" as="sourcePoint" />
            <mxPoint x="430" y="840" as="targetPoint" />
          </mxGeometry>
        </mxCell>
        <mxCell id="33" value="Bus Message async" style="edgeLabel;html=1;align=center;verticalAlign=middle;resizable=0;points=[];" connectable="0" vertex="1" parent="32">
          <mxGeometry x="0.066" y="1" relative="1" as="geometry">
            <mxPoint y="-11" as="offset" />
          </mxGeometry>
        </mxCell>
        <mxCell id="34" value="" style="endArrow=none;html=1;rounded=0;fillColor=#d5e8d4;strokeColor=#82b366;startArrow=open;startFill=0;endFill=0;" edge="1" parent="1">
          <mxGeometry width="50" height="50" relative="1" as="geometry">
            <mxPoint x="430" y="885.34" as="sourcePoint" />
            <mxPoint x="340" y="885.34" as="targetPoint" />
          </mxGeometry>
        </mxCell>
        <mxCell id="35" value="Relation" style="edgeLabel;html=1;align=center;verticalAlign=middle;resizable=0;points=[];" vertex="1" connectable="0" parent="34">
          <mxGeometry x="0.0845" y="-2" relative="1" as="geometry">
            <mxPoint x="-21" y="-8" as="offset" />
          </mxGeometry>
        </mxCell>
        <mxCell id="36" value="" style="rounded=0;orthogonalLoop=1;jettySize=auto;html=1;dashed=1;endArrow=classic;endFill=1;fillColor=#d5e8d4;strokeColor=#82b366;exitX=1;exitY=0.25;exitDx=0;exitDy=0;" edge="1" parent="1">
          <mxGeometry relative="1" as="geometry">
            <mxPoint x="340" y="865.34" as="sourcePoint" />
            <mxPoint x="430" y="865.34" as="targetPoint" />
          </mxGeometry>
        </mxCell>
        <mxCell id="37" value="Bus Message sync" style="edgeLabel;html=1;align=center;verticalAlign=middle;resizable=0;points=[];" connectable="0" vertex="1" parent="36">
          <mxGeometry x="0.066" y="1" relative="1" as="geometry">
            <mxPoint x="-3" y="-14" as="offset" />
          </mxGeometry>
        </mxCell>
      </root>
    </mxGraphModel>
  </diagram>
</mxfile>
